<?xml version="1.0" standalone="no"?>
<!DOCTYPE svg PUBLIC "-//W3C//DTD SVG 1.1//EN" "http://www.w3.org/Graphics/SVG/1.1/DTD/svg11.dtd" >
<svg xmlns="http://www.w3.org/2000/svg">
<metadata></metadata>
<defs>
<font id="4000bold" horiz-adv-x="1122" >
<font-face units-per-em="2048" ascent="1536" descent="-512" />
<missing-glyph horiz-adv-x="409" />
<glyph horiz-adv-x="2048" />
<glyph horiz-adv-x="2048" />
<glyph unicode="&#xd;" horiz-adv-x="2048" />
<glyph unicode=" "  horiz-adv-x="409" />
<glyph unicode="&#x09;" horiz-adv-x="409" />
<glyph unicode="&#xa0;" horiz-adv-x="409" />
<glyph unicode="!" horiz-adv-x="579" d="M109 1464h360l-78 -975h-203zM127 0v322h322v-322h-322z" />
<glyph unicode="&#x22;" horiz-adv-x="907" d="M84 1282v182h305v-182l-80 -377h-145zM518 1282v182h305v-182l-80 -377h-145z" />
<glyph unicode="#" d="M82 457v161h221v228h-221v162h221v456h162v-456h192v456h160v-456h223v-162h-223v-228h223v-161h-223v-457h-160v457h-192v-457h-162v457h-221zM465 618h192v228h-192v-228z" />
<glyph unicode="$" d="M70 346l192 152q48 -74 133.5 -124t169.5 -50q75 0 126.5 38.5t51.5 94.5q0 34 -21.5 59.5t-57.5 43.5t-83 33.5t-99 31.5t-104 35.5t-99 48t-83 65.5t-57.5 92.5t-21.5 124.5q0 141 85.5 238.5t239.5 126.5v207h246v-211q92 -24 175 -80t136 -133l-180 -138 q-48 55 -125.5 89t-144.5 34q-64 0 -107 -29.5t-43 -80.5q0 -34 21.5 -60t58 -43.5t83.5 -32t99.5 -30t104.5 -34.5t99 -47.5t83.5 -66t58 -95t21.5 -128.5q0 -157 -93 -254t-239 -129v-194h-245v190q-118 21 -221 88.5t-160 167.5z" />
<glyph unicode="%" horiz-adv-x="1955" d="M86 1092q0 158 113.5 270.5t271.5 112.5t270.5 -112.5t112.5 -270.5t-112.5 -271.5t-270.5 -113.5t-271.5 113.5t-113.5 271.5zM319 1092q0 -65 44 -110.5t108 -45.5t109 45.5t45 110.5t-45 110t-109 45t-108 -45t-44 -110zM432 -18l834 1499h256l-834 -1499h-256z M1102 367q0 158 113.5 270.5t271.5 112.5t270.5 -112.5t112.5 -270.5t-112.5 -271.5t-270.5 -113.5t-271.5 113.5t-113.5 271.5zM1337 367q0 -65 43 -110.5t107 -45.5q66 0 110.5 45.5t44.5 110.5t-44.5 110t-110.5 45q-64 0 -107 -45t-43 -110z" />
<glyph unicode="&#x26;" horiz-adv-x="1363" d="M63 389q0 291 316 440q-100 165 -100 299q0 162 115.5 257.5t281.5 95.5q162 0 267.5 -93t105.5 -243q0 -70 -24 -129.5t-68 -105t-93.5 -78.5t-113.5 -62l206 -262q62 143 68 303h283q-1 -140 -48 -275.5t-131 -246.5l228 -289h-363l-75 98q-177 -118 -388 -118 q-95 0 -178 25t-148 74t-103 129t-38 181zM377 432q0 -95 58.5 -148t156.5 -53q102 0 178 64l-262 350q-131 -76 -131 -213zM561 1112q0 -77 66 -178q151 72 151 190q0 53 -27.5 87t-76.5 34q-47 0 -80 -35t-33 -98z" />
<glyph unicode="'" horiz-adv-x="473" d="M84 1282v182h305v-182l-80 -377h-145z" />
<glyph unicode="(" horiz-adv-x="679" d="M137 674q0 226 71 470.5t173 383.5h250q-86 -141 -145.5 -387t-59.5 -459q0 -220 62 -479.5t145 -399.5h-260q-99 134 -167.5 390t-68.5 481z" />
<glyph unicode=")" horiz-adv-x="679" d="M47 -197q83 140 145 399t62 476q0 214 -60 461t-145 389h250q102 -139 173 -383.5t71 -470.5t-69 -482t-169 -389h-258z" />
<glyph unicode="*" horiz-adv-x="919" d="M53 1108l72 201l248 -101l-23 256h225l-28 -260l248 103l71 -199l-268 -53l178 -205l-182 -113l-139 219l-131 -219l-189 117l187 203z" />
<glyph unicode="+" d="M106 522v244h334v344h242v-344h334v-244h-334v-346h-242v346h-334z" />
<glyph unicode="," horiz-adv-x="473" d="M76 0v322h321v-316l-164 -305h-153l106 299h-110z" />
<glyph unicode="-" horiz-adv-x="669" d="M45 498v243h578v-243h-578z" />
<glyph unicode="." horiz-adv-x="473" d="M76 0v322h321v-322h-321z" />
<glyph unicode="/" horiz-adv-x="831" d="M0 -20l614 1501h217l-614 -1501h-217z" />
<glyph unicode="0" d="M86 725q0 377 116 566.5t359 189.5q242 0 357.5 -189.5t115.5 -564.5q0 -378 -117 -562.5t-358 -184.5q-242 0 -357.5 184t-115.5 561zM387 727q0 -237 41 -359t133 -122q91 0 131.5 121.5t40.5 357.5q0 241 -41.5 364t-132.5 123q-90 0 -131 -122.5t-41 -362.5z" />
<glyph unicode="1" d="M168 985v205q91 0 158.5 12t112 31.5t81 57t59.5 75t52 98.5h200v-1464h-303v985h-360z" />
<glyph unicode="2" d="M82 956q0 106 32 200.5t91 167t150.5 115t201.5 42.5q197 0 332 -137t135 -330q0 -109 -51.5 -214t-132.5 -188l-342 -350h534v-262h-913v252l467 502q61 64 101 133.5t40 124.5q0 89 -49.5 143.5t-124.5 54.5q-87 0 -128.5 -67t-41.5 -187h-301z" />
<glyph unicode="3" d="M80 457v30h301v-47q0 -72 49 -127t125 -55q73 0 123.5 53.5t50.5 128.5q0 85 -52 142t-126 57h-88v240h72q66 0 109.5 48.5t43.5 131.5q0 56 -41 102.5t-98 46.5q-61 0 -100 -44.5t-39 -108.5v-45h-299v39q0 117 60.5 216.5t163 157.5t220.5 58q182 0 309 -127t127 -305 q0 -78 -33.5 -155t-87.5 -128q160 -137 160 -322q0 -193 -139 -327.5t-336 -134.5q-201 0 -338 138t-137 337z" />
<glyph unicode="4" d="M35 313v236l614 915h309v-913h119v-238h-119v-313h-301v313h-622zM305 551h352v532z" />
<glyph unicode="5" d="M84 446h303q0 -92 48 -145t120 -53q80 0 131 63t51 154t-50 154t-130 63q-81 0 -143 -80l-267 49l97 813h702v-266h-444l-35 -272q63 24 121 24q190 0 322 -137.5t132 -335.5q0 -206 -142 -351.5t-349 -145.5q-125 0 -230.5 55.5t-171 163.5t-65.5 247z" />
<glyph unicode="6" d="M90 457q0 56 13.5 117t28.5 105.5t50.5 113.5t53.5 100t65.5 108.5t60.5 98.5l222 364h329l-344 -569h25q116 0 217 -56.5t163 -159t62 -226.5q0 -126 -64 -234.5t-175.5 -172.5t-241.5 -64q-196 0 -330.5 136t-134.5 339zM387 453q0 -85 50.5 -140t125.5 -55 q74 0 124 55t50 140t-50 140.5t-124 55.5t-125 -55.5t-51 -140.5z" />
<glyph unicode="7" d="M72 1196v268h970v-241l-526 -1223h-340l545 1196h-649z" />
<glyph unicode="8" d="M86 442q0 189 156 322q-121 114 -121 283q0 115 59 215t160.5 159.5t220.5 59.5t220.5 -59.5t160.5 -159.5t59 -215q0 -165 -122 -281q157 -131 157 -324q0 -125 -63.5 -231t-173 -167.5t-238.5 -61.5t-238.5 61.5t-173 167.5t-63.5 231zM387 440q0 -75 50.5 -128.5 t123.5 -53.5t124.5 53.5t51.5 128.5t-51.5 129t-124.5 54t-123.5 -53.5t-50.5 -129.5zM408 1051q0 -63 44 -110.5t109 -47.5q66 0 111 47.5t45 110.5q0 64 -45 111.5t-111 47.5q-65 0 -109 -47.5t-44 -111.5z" />
<glyph unicode="9" d="M86 1008q0 126 65 235t174.5 173.5t235.5 64.5q128 0 237 -67.5t171.5 -179t62.5 -239.5q0 -156 -67 -270l-426 -725h-330l342 567q-12 -2 -37 -2q-171 0 -299.5 130.5t-128.5 312.5zM385 1008q0 -77 51 -136t123 -59q71 0 123.5 59.5t52.5 135.5q0 77 -52.5 135.5 t-123.5 58.5q-72 0 -123 -58t-51 -136z" />
<glyph unicode=":" horiz-adv-x="473" d="M76 0v322h321v-322h-321zM76 760v321h321v-321h-321z" />
<glyph unicode=";" horiz-adv-x="473" d="M76 0v322h321v-316l-164 -305h-153l106 299h-110zM76 760v321h321v-321h-321z" />
<glyph unicode="&#x3c;" d="M109 500v286l907 340v-247l-703 -234l703 -229v-252z" />
<glyph unicode="=" d="M106 309v244h910v-244h-910zM106 735v244h910v-244h-910z" />
<glyph unicode="&#x3e;" d="M109 164v252l702 229l-702 234v247l907 -340v-286z" />
<glyph unicode="?" horiz-adv-x="1073" d="M72 977q0 102 32 193.5t90.5 160.5t148.5 109.5t198 40.5q98 0 181.5 -33.5t139 -90t86.5 -131t31 -155.5q0 -75 -26.5 -145.5t-65 -125.5t-78.5 -105.5t-72 -104.5t-39 -103h-295q8 97 93 222q22 33 63 86.5t64 85.5t42 78t19 90q0 73 -44 117t-110 44 q-80 0 -122.5 -64.5t-42.5 -168.5h-293zM381 0v319h324v-319h-324z" />
<glyph unicode="@" horiz-adv-x="1681" d="M63 743q0 140 43.5 260.5t118.5 207t174.5 148.5t212 92t230.5 30q119 0 231.5 -30t211 -91t172.5 -147t116.5 -206t42.5 -259q0 -118 -42 -221t-121 -166.5t-177 -63.5q-84 0 -135.5 19.5t-93.5 68.5q-43 -50 -111.5 -75t-138.5 -25q-67 0 -125 15.5t-106.5 48 t-76.5 88.5t-28 130q0 97 50.5 164.5t125.5 97t164 29.5q118 0 196 -61v47q0 82 -38.5 124t-137.5 42t-213 -58l-90 142q57 35 145.5 59.5t178.5 24.5q187 0 279.5 -85t92.5 -266v-274q0 -45 14 -72.5t40 -27.5q64 0 102.5 89t38.5 206q0 111 -30.5 206t-83.5 163 t-125 115.5t-155 71t-173 23.5q-89 0 -170.5 -23t-151.5 -70.5t-122 -115.5t-81.5 -164.5t-29.5 -210.5q0 -138 42.5 -254.5t115 -194.5t169.5 -121.5t207 -43.5q84 0 173.5 20.5t150.5 51.5l59 -133q-203 -88 -401 -88q-152 0 -286 52.5t-235 148t-160 241t-59 321.5z M678 571q0 -53 41.5 -87.5t103.5 -34.5q41 0 77.5 9.5t66.5 38t30 72.5q0 65 -50.5 97t-123.5 32q-62 0 -103.5 -35.5t-41.5 -91.5z" />
<glyph unicode="A" horiz-adv-x="1196" d="M6 0l420 1464h340l422 -1464h-326l-78 301h-376l-74 -301h-328zM465 557h262l-131 524z" />
<glyph unicode="B" horiz-adv-x="1146" d="M117 0v1464h491q194 0 320.5 -110.5t126.5 -278.5q0 -95 -42 -175t-114 -124q191 -112 191 -330q0 -195 -138.5 -320.5t-345.5 -125.5h-489zM424 266h160q94 0 148 53t54 142q0 90 -57.5 135t-161.5 45h-143v-375zM424 883h151q88 0 137.5 41t49.5 116q0 71 -44 112.5 t-126 41.5h-168v-311z" />
<glyph unicode="C" horiz-adv-x="1155" d="M88 723q0 168 28 298.5t76 216t117.5 141t147.5 79t170 23.5q370 0 483 -389l-295 -37q-60 149 -190 149q-230 0 -230 -475t234 -475q139 0 200 164l285 -66q-67 -191 -187 -281.5t-302 -90.5q-537 0 -537 743z" />
<glyph unicode="D" horiz-adv-x="1232" d="M117 0v1464h483q132 0 232.5 -41t173 -127.5t110 -228.5t37.5 -336q0 -382 -141.5 -556.5t-411.5 -174.5h-483zM424 268h176q246 0 246 463t-248 463h-174v-926z" />
<glyph unicode="E" horiz-adv-x="1058" d="M117 0v1464h864v-270h-557v-326h395v-254h-395v-346h598v-268h-905z" />
<glyph unicode="F" horiz-adv-x="1044" d="M115 0v1464h893v-270h-586v-350h463v-254h-463v-590h-307z" />
<glyph unicode="G" horiz-adv-x="1198" d="M88 723q0 168 28 298.5t76 216t117.5 141t147.5 79t170 23.5q372 0 483 -387l-295 -39q-60 149 -190 149q-230 0 -230 -479q0 -471 228 -471q95 0 145.5 75t52.5 208h-188v245h497v-180q0 -315 -137 -468.5t-375 -153.5q-530 0 -530 743z" />
<glyph unicode="H" horiz-adv-x="1216" d="M117 0v1464h307v-592h369v592h307v-1464h-307v612h-369v-612h-307z" />
<glyph unicode="I" horiz-adv-x="540" d="M117 0v1464h307v-1464h-307z" />
<glyph unicode="J" horiz-adv-x="1015" d="M20 412v112h299v-110q0 -74 38.5 -123t101.5 -49q61 0 96 45.5t35 126.5v1050h309v-1042q0 -199 -123.5 -320.5t-320.5 -121.5q-194 0 -314.5 117.5t-120.5 314.5z" />
<glyph unicode="K" horiz-adv-x="1198" d="M115 0v1464h307v-690l407 690h318l-367 -585l414 -879h-346l-258 602l-168 -252v-350h-307z" />
<glyph unicode="L" horiz-adv-x="983" d="M117 0v1464h307v-1196h534v-268h-841z" />
<glyph unicode="M" horiz-adv-x="1486" d="M115 0v1464h358l272 -774l267 774h358v-1464h-307v926l-215 -609h-199l-227 631v-948h-307z" />
<glyph unicode="N" horiz-adv-x="1236" d="M115 0v1464h293l415 -899v899h295v-1464h-291l-417 889v-889h-295z" />
<glyph unicode="O" horiz-adv-x="1273" d="M88 729q0 382 142.5 567t406.5 185t405.5 -184.5t141.5 -563.5q0 -384 -143 -568.5t-406 -184.5t-405 185t-142 564zM395 729q0 -241 64 -359t178 -118q113 0 176.5 118t63.5 359t-63.5 360t-176.5 119t-177.5 -118.5t-64.5 -360.5z" />
<glyph unicode="P" horiz-adv-x="1144" d="M115 0v1464h489q204 0 347 -139t143 -340q0 -131 -66 -241t-178.5 -173t-245.5 -63h-182v-508h-307zM422 776h162q85 0 141.5 61t56.5 150q0 86 -57.5 146.5t-140.5 60.5h-162v-418z" />
<glyph unicode="Q" horiz-adv-x="1290" d="M88 729q0 382 142 567t405 185q265 0 407 -184t142 -554q0 -339 -137 -512q125 -6 249 -36v-291q-244 76 -446 76h-213q-265 0 -407 184t-142 565zM395 729q0 -241 64 -359t178 -118q113 0 176.5 118t63.5 359t-63.5 360t-176.5 119t-177.5 -118.5t-64.5 -360.5z" />
<glyph unicode="R" horiz-adv-x="1163" d="M115 0v1464h481q204 0 346.5 -137t142.5 -338q0 -113 -61 -219.5t-156 -171.5l291 -598h-338l-241 524h-158v-524h-307zM422 786h153q85 0 143 58t58 145t-58 146t-143 59h-153v-408z" />
<glyph unicode="S" horiz-adv-x="1048" d="M37 455l303 -2q10 -95 59 -145t123 -50q69 0 115.5 44.5t46.5 113.5q0 49 -34 87t-88 65.5t-119.5 54t-131 61.5t-119.5 80t-88 117.5t-34 165.5q0 186 126 310t318 124q174 0 299.5 -113.5t140.5 -290.5h-299q-9 63 -50.5 95t-98.5 32q-56 0 -92.5 -35t-36.5 -96 q0 -44 34 -80t88.5 -63.5t120 -56t131 -65.5t120 -84t88.5 -120.5t34 -165.5q0 -196 -136 -327t-337 -131q-92 0 -175 32t-148.5 91t-108 150t-51.5 202z" />
<glyph unicode="T" horiz-adv-x="1069" d="M25 1196v268h1022v-268h-359v-1196h-307v1196h-356z" />
<glyph unicode="U" horiz-adv-x="1193" d="M111 455v1009h309v-1015q0 -93 51 -144t125 -51t125 51t51 141v1018h309v-1009q0 -211 -139 -343t-346 -132q-205 0 -345 132t-140 343z" />
<glyph unicode="V" horiz-adv-x="1150" d="M4 1464h313l256 -1009l256 1009h318l-422 -1464h-303z" />
<glyph unicode="W" horiz-adv-x="1875" d="M29 1464h313l215 -977l238 977h284l240 -977l211 977h317l-372 -1464h-293l-244 999l-244 -999h-293z" />
<glyph unicode="X" horiz-adv-x="1253" d="M18 0l443 770l-400 694h334l232 -401l229 401h334l-397 -694l442 -770h-336l-272 473l-275 -473h-334z" />
<glyph unicode="Y" horiz-adv-x="1193" d="M16 1464h318l260 -565l262 565h320q-349 -730 -426 -893v-571h-310v571z" />
<glyph unicode="Z" horiz-adv-x="1054" d="M39 0v252l584 944h-545v268h895v-252l-582 -944h625v-268h-977z" />
<glyph unicode="[" horiz-adv-x="677" d="M164 -385v2044h475v-189h-188v-1671h190v-184h-477z" />
<glyph unicode="\" horiz-adv-x="831" d="M0 1481h217l614 -1501h-217z" />
<glyph unicode="]" horiz-adv-x="677" d="M37 -201h190v1671h-188v189h475v-2044h-477v184z" />
<glyph unicode="^" horiz-adv-x="585" d="M4 991l137 473h295l146 -473h-201l-90 307l-86 -307h-201z" />
<glyph unicode="_" horiz-adv-x="872" d="M14 -94h842v-244h-842v244z" />
<glyph unicode="`" horiz-adv-x="497" d="M20 1464h302l155 -278h-264z" />
<glyph unicode="a" horiz-adv-x="1024" d="M39 336q0 91 30 162t80 112.5t109 62.5t123 21q160 0 262 -108v90q0 94 -42 139t-142 45q-122 0 -248 -61l-135 176q179 125 424 125q432 0 432 -410v-690h-289v104q-36 -57 -110 -90.5t-156 -33.5q-61 0 -119 20.5t-108 61t-80.5 111.5t-30.5 163zM324 338 q0 -52 40 -89.5t103 -37.5q48 0 98.5 21.5t77.5 48.5v120q-28 27 -78.5 45.5t-95.5 18.5q-65 0 -105 -36.5t-40 -90.5z" />
<glyph unicode="b" horiz-adv-x="1077" d="M92 0v1464h295v-491q39 53 108 90t158 37q161 0 257 -136.5t96 -408.5q0 -122 -20.5 -220.5t-55 -163.5t-81.5 -109t-98 -63t-106 -19q-82 0 -150.5 37t-107.5 85v-102h-295zM387 301q27 -25 75 -48.5t93 -23.5q71 0 114.5 72t43.5 238t-43.5 239.5t-114.5 73.5 q-45 0 -93 -23.5t-75 -50.5v-477z" />
<glyph unicode="c" horiz-adv-x="954" d="M66 539q0 280 120.5 420.5t331.5 140.5q304 0 406 -299l-262 -56q-58 99 -148 99q-77 0 -116.5 -69t-39.5 -232q0 -164 39.5 -235.5t116.5 -71.5q93 0 148 98l264 -55q-113 -299 -414 -299q-211 0 -328.5 141.5t-117.5 417.5z" />
<glyph unicode="d" horiz-adv-x="1077" d="M70 530q0 148 32.5 261t87 178.5t120.5 98t139 32.5q152 0 241 -121v485h295v-1464h-295v106q-38 -54 -106 -90t-152 -36q-158 0 -260 138.5t-102 411.5zM362 537q0 -310 160 -310q86 0 168 82v469q-24 28 -68.5 51t-93.5 23q-166 0 -166 -315z" />
<glyph unicode="e" horiz-adv-x="1032" d="M70 535q0 148 34.5 258.5t97 176.5t144.5 98t184 32q220 0 325.5 -152.5t105.5 -486.5h-592q6 -234 186 -234q106 0 172 86l238 -86q-135 -247 -428 -247q-221 0 -344 135t-123 420zM369 629h305q-5 103 -40 159t-114 56q-143 0 -151 -215z" />
<glyph unicode="f" horiz-adv-x="620" d="M-2 846v235h145v56q0 181 93 262.5t266 81.5q4 0 139 -6v-240q-43 6 -90 6q-119 0 -119 -113v-47h180v-235h-180v-846h-289v846h-145z" />
<glyph unicode="g" horiz-adv-x="1071" d="M70 559q0 271 99.5 406t258.5 135q151 0 254 -127v108h295v-1042q0 -203 -118.5 -322.5t-323.5 -119.5q-159 0 -265.5 71t-156.5 191l258 55q64 -76 155 -76q75 0 115.5 52.5t40.5 138.5v102q-40 -52 -106.5 -88.5t-147.5 -36.5q-71 0 -133 31t-113.5 94.5t-81.5 173.5 t-30 254zM362 553q0 -157 43.5 -227t114.5 -70q82 0 162 74v442q-80 80 -164 80q-70 0 -113 -71.5t-43 -227.5z" />
<glyph unicode="h" horiz-adv-x="1060" d="M92 0v1464h295v-489q38 51 106.5 88t159.5 37q152 0 233 -109t81 -299v-692h-295v690q0 164 -119 164q-48 0 -93 -22t-73 -50v-782h-295z" />
<glyph unicode="i" horiz-adv-x="489" d="M94 1200v264h299v-264h-299zM96 0v1081h295v-1081h-295z" />
<glyph unicode="j" horiz-adv-x="489" d="M-33 -150q10 -2 29 -2q50 0 75 25.5t25 85.5v1122h295v-1128q0 -182 -89.5 -263t-258.5 -81q-14 0 -39 1t-37 1v239zM94 1198v266h299v-266h-299z" />
<glyph unicode="k" horiz-adv-x="1058" d="M96 0v1464h293v-848l295 465h326l-303 -395l348 -686h-332l-209 477l-125 -184v-293h-293z" />
<glyph unicode="l" horiz-adv-x="489" d="M96 0v1464h295v-1464h-295z" />
<glyph unicode="m" horiz-adv-x="1624" d="M92 0v1081h295v-108q39 55 106 91t152 36q87 0 158.5 -41t107.5 -117q57 76 137.5 117t172.5 41q152 0 231.5 -108.5t79.5 -301.5v-690h-297v690q0 86 -27 123t-86 37q-46 0 -92.5 -19.5t-73.5 -46.5q2 -49 2 -143v-641h-294v690q0 164 -117 164q-86 0 -160 -74v-780 h-295z" />
<glyph unicode="n" horiz-adv-x="1060" d="M92 0v1081h295v-106q38 51 106.5 88t159.5 37q153 0 234.5 -109t81.5 -299v-692h-297v690q0 164 -119 164q-48 0 -93 -22t-73 -50v-782h-295z" />
<glyph unicode="o" horiz-adv-x="1064" d="M63 543q0 266 122 410.5t347 144.5t347 -144.5t122 -410.5q0 -268 -122 -414.5t-347 -146.5t-347 146.5t-122 414.5zM354 543q0 -312 178 -312q177 0 177 312q0 305 -177 305q-178 0 -178 -305z" />
<glyph unicode="p" horiz-adv-x="1075" d="M92 -383v1464h295v-108q36 44 107.5 85.5t148.5 41.5q170 0 266.5 -135.5t96.5 -423.5q0 -145 -31 -256t-85 -176t-120 -97t-143 -32q-80 0 -144 36.5t-96 85.5v-485h-295zM387 301q26 -26 74 -50t90 -24q162 0 162 310q0 315 -162 315q-42 0 -90.5 -24t-73.5 -50v-477z " />
<glyph unicode="q" horiz-adv-x="1077" d="M70 539q0 115 21.5 210t57.5 159t85.5 108t103 64t111.5 20q152 0 241 -121v102h295v-1464h-295v489q-38 -54 -105.5 -90t-150.5 -36q-77 0 -141.5 32.5t-115 97.5t-79 175t-28.5 254zM362 539q0 -312 166 -312q41 0 88 26.5t74 55.5v469q-23 27 -67.5 50.5t-85.5 23.5 q-175 0 -175 -313z" />
<glyph unicode="r" horiz-adv-x="714" d="M92 0v1081h295v-188q78 201 301 207v-299q-47 6 -84 6q-88 0 -152.5 -62.5t-64.5 -179.5v-565h-295z" />
<glyph unicode="s" horiz-adv-x="942" d="M14 160l174 149q49 -40 120.5 -70t146.5 -30q73 0 117 30t44 80q0 35 -24.5 58.5t-65 34t-92 22t-105 20.5t-105 30.5t-92 52t-65 85t-24.5 128.5q0 162 112.5 256t305.5 94q255 0 407 -162l-178 -147q-92 75 -217 75q-66 0 -106.5 -24t-40.5 -72q0 -20 9 -34.5 t21.5 -23.5t38.5 -17t47 -11.5t60 -9.5q49 -8 81 -14.5t78 -19.5t75.5 -27.5t63 -39t52.5 -54.5t32 -72.5t13 -94.5q0 -174 -123 -273t-321 -99q-141 0 -258.5 50t-180.5 130z" />
<glyph unicode="t" horiz-adv-x="655" d="M8 846v235h164v258h295v-258h178v-235h-178v-846h-295v846h-164z" />
<glyph unicode="u" horiz-adv-x="1056" d="M92 389v692h295v-690q0 -87 32 -125.5t95 -38.5q40 0 84 18t70 40v796h295v-1081h-295v104q-37 -50 -107 -86t-139 -36q-167 0 -248.5 107t-81.5 300z" />
<glyph unicode="v" horiz-adv-x="999" d="M23 1081h303l176 -696l182 696h291l-328 -1081h-301z" />
<glyph unicode="w" horiz-adv-x="1581" d="M20 1081h297l164 -645l172 645h277l168 -645l168 645h295l-324 -1081h-266l-180 643l-181 -643h-268z" />
<glyph unicode="x" horiz-adv-x="1013" d="M-14 0l354 571l-317 510h311l164 -270l161 270h310l-316 -512l355 -569h-312l-200 330l-203 -330h-307z" />
<glyph unicode="y" horiz-adv-x="999" d="M23 1081h299l174 -675l180 675h299l-459 -1466h-293l127 408z" />
<glyph unicode="z" horiz-adv-x="911" d="M39 0v221l463 625h-447v235h799v-223l-467 -625h467v-233h-815z" />
<glyph unicode="{" horiz-adv-x="714" d="M78 522v240q77 0 119.5 57.5t42.5 161.5v279q0 195 104.5 297t339.5 102v-213q-73 0 -114.5 -39.5t-41.5 -120.5v-291q0 -140 -62.5 -229t-143.5 -125q37 -15 70.5 -41.5t65.5 -67.5t51 -104t19 -139v-299q0 -160 156 -160v-213q-238 0 -341 99t-103 298v289 q0 109 -43 164t-119 55z" />
<glyph unicode="|" horiz-adv-x="724" d="M268 -385v1866h185v-1866h-185z" />
<glyph unicode="}" horiz-adv-x="714" d="M29 -170q72 0 114.5 38.5t42.5 121.5v299q0 74 19 136t50.5 104t65 69t70.5 43q-37 16 -70.5 43t-65 68.5t-50.5 104.5t-19 138v291q0 83 -43 121.5t-114 38.5v213q238 0 341 -99.5t103 -299.5v-279q0 -109 43 -164t119 -55v-240h-4q-77 0 -117.5 -66.5t-40.5 -152.5 v-289q0 -193 -104.5 -295t-339.5 -102v213z" />
<glyph unicode="~" d="M90 514q13 131 94.5 225.5t198.5 94.5q56 0 130 -28t136.5 -56.5t89.5 -28.5q44 0 70 23.5t41 74.5h184q-13 -139 -88 -232t-196 -93q-52 0 -124.5 29.5t-137.5 59t-97 29.5q-47 0 -77 -29t-42 -69h-182z" />
<glyph unicode="&#xa1;" horiz-adv-x="579" d="M109 -383l79 975h203l78 -975h-360zM127 760v321h322v-321h-322z" />
<glyph unicode="&#xa2;" d="M76 719q0 208 121.5 360.5t312.5 194.5v229h235v-225q199 -37 338 -195l-227 -155q-86 96 -215 96q-114 0 -196.5 -91t-82.5 -214t80.5 -214t200.5 -91q134 0 215 100q38 -26 114.5 -78t114.5 -78q-137 -162 -342 -198v-180h-235v186q-192 42 -313 193t-121 360z" />
<glyph unicode="&#xa3;" d="M123 0v991q0 248 108.5 369t335.5 121q183 0 293.5 -96.5t132.5 -258.5l-297 -14q-28 92 -129 92q-74 0 -107.5 -46.5t-33.5 -160.5v-176h371v-241h-371v-318h600v-262h-903z" />
<glyph unicode="&#xa4;" horiz-adv-x="1153" d="M106 397l111 113q-88 112 -88 262q0 164 90 270l-113 111l93 92l112 -110q112 88 264 88q156 0 271 -88l110 110l91 -92l-111 -113q88 -105 88 -268q0 -153 -86 -262l109 -113l-91 -92l-110 113q-106 -92 -271 -92q-159 0 -268 92q-20 -23 -59.5 -63.5t-48.5 -49.5z M279 772q0 -126 86.5 -216.5t209.5 -90.5q127 0 213 91t86 216q0 128 -86 219.5t-213 91.5q-126 0 -211 -91t-85 -220z" />
<glyph unicode="&#xa5;" d="M49 1464h305l205 -557l209 557h307l-258 -610h199v-231h-277l-22 -134h299v-231h-299v-258h-314v258h-297v231h295l-22 134h-273v231h195z" />
<glyph unicode="&#xa6;" horiz-adv-x="724" d="M268 -385v938h185v-938h-185zM268 651v830h185v-830h-185z" />
<glyph unicode="&#xa7;" d="M31 535q0 96 54 180t148 139q-64 47 -102.5 119.5t-38.5 154.5q0 154 135 253.5t338 99.5q133 0 246.5 -41.5t181.5 -96.5l-159 -176q-134 72 -259 72q-79 0 -127.5 -30t-48.5 -81q0 -36 25.5 -59t77.5 -47q48 -22 124.5 -49.5t134 -47t122.5 -52.5t106.5 -68t69.5 -90.5 t28 -124.5q0 -185 -174 -314q127 -95 127 -253q0 -124 -73 -216t-185.5 -136t-244.5 -44q-124 0 -256 39.5t-218 108.5l177 186q154 -96 303 -96q90 0 144 36t54 91q0 44 -41.5 74t-146.5 69q-26 9 -77 27.5t-77.5 28.5t-72 28t-70.5 30.5t-61 32.5t-56 38t-43.5 42.5 t-35.5 49.5t-20.5 56.5t-8.5 66.5zM330 598q0 -22 12 -42t37 -37.5t48.5 -31t62.5 -28t62.5 -23t64.5 -21t53 -16.5q56 17 91.5 55t35.5 81q0 23 -10.5 43t-32.5 36t-44.5 29.5t-57.5 26.5t-61.5 22t-65.5 21.5t-60 19.5q-58 -15 -96.5 -54.5t-38.5 -80.5z" />
<glyph unicode="&#xa8;" horiz-adv-x="649" d="M31 1212v252h250v-252h-250zM369 1212v252h249v-252h-249z" />
<glyph unicode="&#xa9;" horiz-adv-x="1624" d="M61 729q0 153 59.5 292.5t160 240t239 160t291.5 59.5t292 -59.5t240 -160t160.5 -240t59.5 -292.5q0 -152 -59.5 -291t-160.5 -239t-240 -159.5t-292 -59.5t-291.5 59.5t-239 159.5t-160 239t-59.5 291zM246 731q0 -164 72.5 -299t202.5 -213t290 -78q162 0 292 78 t202.5 213t72.5 299t-72.5 299t-202.5 213t-292 78q-160 0 -290 -78t-202.5 -213t-72.5 -299zM434 731q0 160 114 272.5t275 112.5q128 0 227 -69t142 -183l-180 -57q-22 60 -74 95.5t-115 35.5q-81 0 -134.5 -58.5t-53.5 -146.5q0 -87 53.5 -146t134.5 -59q64 0 116 35.5 t75 95.5l178 -61q-44 -113 -142.5 -181.5t-226.5 -68.5q-161 0 -275 111.5t-114 271.5z" />
<glyph unicode="&#xaa;" horiz-adv-x="751" d="M41 981q0 59 23 105t59.5 72.5t78 40t83.5 13.5q103 0 161 -61v51q0 56 -26 83.5t-84 27.5q-43 0 -94.5 -12t-83.5 -31l-95 125q47 34 127.5 59t161.5 25q310 0 310 -267v-450h-216v51q-60 -63 -163 -63q-42 0 -82.5 12.5t-77 38.5t-59.5 72.5t-23 107.5zM47 483v187h615 v-187h-615zM254 981q0 -31 25 -51.5t63 -20.5q19 0 40 5t40.5 18.5t23.5 32.5v28q-4 29 -38 45.5t-66 16.5q-38 0 -63 -21t-25 -53z" />
<glyph unicode="&#xab;" horiz-adv-x="958" d="M20 580l211 415h279l-203 -409l203 -418h-277zM442 580l211 415h279l-203 -409l203 -418h-277z" />
<glyph unicode="&#xac;" d="M106 522v244h910v-590h-244v346h-666z" />
<glyph unicode="&#xad;" horiz-adv-x="0" />
<glyph unicode="&#xae;" horiz-adv-x="1624" d="M61 729q0 153 59.5 292.5t160 240t239 160t291.5 59.5t292 -59.5t240 -160t160.5 -240t59.5 -292.5q0 -152 -59.5 -291t-160.5 -239t-240 -159.5t-292 -59.5t-291.5 59.5t-239 159.5t-160 239t-59.5 291zM246 731q0 -164 72.5 -299t203 -213t291.5 -78t291 78t202 213 t72 299t-72 299t-202 213t-291 78t-291.5 -78t-203 -213t-72.5 -299zM526 365v743h351q107 0 183.5 -73.5t76.5 -174.5q0 -120 -107 -201l141 -294h-217l-104 247h-123v-247h-201zM727 770h115q45 0 69.5 24.5t24.5 59.5q0 36 -24.5 61t-69.5 25h-115v-170z" />
<glyph unicode="&#xaf;" horiz-adv-x="702" d="M45 1225v207h610v-207h-610z" />
<glyph unicode="&#xb0;" horiz-adv-x="892" d="M63 1092q0 158 112.5 270.5t270.5 112.5q159 0 271 -112t112 -271t-112 -272t-271 -113q-158 0 -270.5 113.5t-112.5 271.5zM297 1092q0 -65 42.5 -110.5t106.5 -45.5q66 0 111 45.5t45 110.5t-45 110t-111 45q-64 0 -106.5 -45t-42.5 -110z" />
<glyph unicode="&#xb1;" d="M106 645v244h334v344h242v-344h334v-244h-334v-346h-242v346h-334zM109 0v244h907v-244h-907z" />
<glyph unicode="&#xb2;" horiz-adv-x="763" d="M47 1133q0 145 85 243.5t233 98.5q138 0 230.5 -85t92.5 -200q0 -122 -123 -252l-182 -193h311v-186h-622v166l301 315q82 87 82 150q0 37 -28 64.5t-67 27.5q-84 0 -84 -149h-229z" />
<glyph unicode="&#xb3;" horiz-adv-x="763" d="M51 844v30h234v-43q0 -39 27.5 -64.5t64.5 -25.5q41 0 65.5 26.5t24.5 66.5q0 45 -27.5 75.5t-64.5 30.5h-80v174h82q35 0 56.5 25.5t21.5 62.5q0 31 -22 55.5t-52 24.5q-34 0 -55 -22.5t-21 -53.5v-43h-231v31q0 114 87.5 197.5t215.5 83.5q124 0 212.5 -81t88.5 -192 q0 -44 -19.5 -90.5t-50.5 -79.5q43 -37 67.5 -88.5t24.5 -105.5q0 -122 -94 -206.5t-229 -84.5q-138 0 -232 86t-94 211z" />
<glyph unicode="&#xb4;" horiz-adv-x="497" d="M20 1186l156 278h301l-192 -278h-265z" />
<glyph unicode="&#xb6;" horiz-adv-x="972" d="M86 1153q0 311 322 311h430v-1849h-131v1722h-168v-1722h-131v1227q-163 0 -242.5 87t-79.5 224z" />
<glyph unicode="&#xb7;" horiz-adv-x="473" d="M76 586v321h321v-321h-321z" />
<glyph unicode="&#xb8;" horiz-adv-x="526" d="M61 -375l41 109q55 -21 121 -21q78 0 78 54q0 55 -86 55q-91 0 -121 -15l23 82q60 60 159 60q82 0 135.5 -46t53.5 -126q0 -82 -61 -133.5t-181 -51.5q-103 0 -162 33z" />
<glyph unicode="&#xb9;" horiz-adv-x="763" d="M94 1151v154q74 0 123.5 9.5t82.5 32t51.5 47.5t41.5 70h168v-905h-237v592h-230z" />
<glyph unicode="&#xba;" horiz-adv-x="749" d="M57 1116q0 181 83 272t235 91q153 0 235 -90.5t82 -272.5q0 -183 -82.5 -274.5t-234.5 -91.5t-235 92.5t-83 273.5zM72 473v197h606v-197h-606zM279 1114q0 -101 24.5 -143.5t71.5 -42.5q48 0 72 43t24 145q0 99 -23.5 141.5t-72.5 42.5q-48 0 -72 -43t-24 -143z" />
<glyph unicode="&#xbb;" horiz-adv-x="958" d="M27 168l202 418l-202 409h278l211 -415l-213 -412h-276zM449 168l202 418l-202 409h278l211 -415l-213 -412h-276z" />
<glyph unicode="&#xbc;" horiz-adv-x="1957" d="M242 1151v154q74 0 123.5 9.5t82.5 32t51.5 47.5t41.5 70h168v-905h-238v592h-229zM512 0l782 1464h228l-783 -1464h-227zM1151 166v158l397 581h236v-557h74v-182h-74v-166h-240v166h-393zM1358 348h186v287z" />
<glyph unicode="&#xbd;" horiz-adv-x="1957" d="M242 1151v154q74 0 123.5 9.5t82.5 32t51.5 47.5t41.5 70h168v-905h-238v592h-229zM475 0l782 1464h228l-783 -1464h-227zM1182 573q0 145 84.5 243.5t232.5 98.5q138 0 231 -84.5t93 -199.5q0 -122 -123 -252l-182 -193h311v-186h-623v166l301 315q82 87 82 150 q0 37 -27.5 64.5t-66.5 27.5q-84 0 -84 -150h-229z" />
<glyph unicode="&#xbe;" horiz-adv-x="1957" d="M51 844v30h234v-43q0 -39 27.5 -64.5t64.5 -25.5q41 0 65.5 26.5t24.5 66.5q0 45 -27.5 75.5t-64.5 30.5h-80v174h82q35 0 56.5 25.5t21.5 62.5q0 31 -22 55.5t-52 24.5q-34 0 -55 -22.5t-21 -53.5v-43h-231v31q0 114 87.5 197.5t215.5 83.5q124 0 212.5 -81t88.5 -192 q0 -44 -19.5 -90.5t-50.5 -79.5q43 -37 67.5 -88.5t24.5 -105.5q0 -122 -94 -206.5t-229 -84.5q-138 0 -232 86t-94 211zM487 0l783 1464h227l-782 -1464h-228zM1151 166v158l397 581h236v-557h74v-182h-74v-166h-240v166h-393zM1358 348h186v287z" />
<glyph unicode="&#xbf;" horiz-adv-x="1073" d="M119 10q0 75 26 145.5t65 125.5t78.5 105.5t71.5 104.5t39 103h295q-8 -97 -92 -221q-22 -33 -63 -86.5t-64 -85.5t-42 -78t-19 -90q0 -73 43.5 -117.5t109.5 -44.5q80 0 123 64.5t43 168.5h293q0 -102 -32 -193t-90.5 -160t-148.5 -109.5t-198 -40.5q-196 0 -317 120 t-121 289zM393 762v319h324v-319h-324z" />
<glyph unicode="&#xc0;" horiz-adv-x="1196" d="M6 0l420 1464h340l422 -1464h-326l-78 301h-376l-74 -301h-328zM262 1847h301l156 -278h-264zM465 557h262l-131 524z" />
<glyph unicode="&#xc1;" horiz-adv-x="1196" d="M6 0l420 1464h340l422 -1464h-326l-78 301h-376l-74 -301h-328zM453 1569l155 278h301l-192 -278h-264zM465 557h262l-131 524z" />
<glyph unicode="&#xc2;" horiz-adv-x="1196" d="M6 0l420 1464h340l422 -1464h-326l-78 301h-376l-74 -301h-328zM307 1569l139 278h289l148 -278h-191l-100 112l-94 -112h-191zM465 557h262l-131 524z" />
<glyph unicode="&#xc3;" horiz-adv-x="1196" d="M6 0l420 1464h340l422 -1464h-326l-78 301h-376l-74 -301h-328zM303 1702q15 47 69.5 93t123.5 46q47 0 122 -31.5t103 -31.5q27 0 52 20t36 47l80 -106q-14 -46 -69.5 -91.5t-125.5 -45.5q-53 0 -129 32.5t-98 32.5q-25 0 -49 -20.5t-35 -47.5zM465 557h262l-131 524z " />
<glyph unicode="&#xc4;" horiz-adv-x="1196" d="M6 0l420 1464h340l422 -1464h-326l-78 301h-376l-74 -301h-328zM303 1571v252h250v-252h-250zM465 557h262l-131 524zM641 1571v252h250v-252h-250z" />
<glyph unicode="&#xc5;" horiz-adv-x="1196" d="M6 0l348 1210q-53 68 -53 164q0 124 86 209.5t209 85.5t209 -85.5t86 -209.5q0 -91 -55 -162l352 -1212h-326l-80 301h-372l-76 -301h-328zM467 557h258l-113 440h-16h-16zM481 1372q0 -47 34 -81t81 -34t79 33.5t32 81.5q0 47 -32 79t-79 32q-48 0 -81.5 -32t-33.5 -79z " />
<glyph unicode="&#xc6;" horiz-adv-x="1740" d="M14 0l535 1464h1098v-270h-523v-326h361v-254h-361v-346h564v-268h-871v360h-350l-133 -360h-320zM549 614h268v582h-53z" />
<glyph unicode="&#xc7;" horiz-adv-x="1155" d="M88 723q0 168 28 298.5t76 216t117.5 141t147.5 79t170 23.5q370 0 483 -389l-295 -37q-60 149 -190 149q-230 0 -230 -475t234 -475q139 0 200 164l285 -66q-67 -191 -187 -281.5t-302 -90.5q-537 0 -537 743zM401 -375l41 109q56 -21 121 -21q78 0 78 54q0 55 -86 55 q-91 0 -121 -15l23 82q60 60 159 60q82 0 135.5 -46t53.5 -126q0 -82 -61 -133.5t-181 -51.5q-103 0 -162 33z" />
<glyph unicode="&#xc8;" horiz-adv-x="1058" d="M117 0v1464h864v-270h-557v-326h395v-254h-395v-346h598v-268h-905zM268 1847h301l156 -278h-264z" />
<glyph unicode="&#xc9;" horiz-adv-x="1058" d="M117 0v1464h864v-270h-557v-326h395v-254h-395v-346h598v-268h-905zM367 1569l155 278h301l-192 -278h-264z" />
<glyph unicode="&#xca;" horiz-adv-x="1058" d="M117 0v1464h864v-270h-557v-326h395v-254h-395v-346h598v-268h-905zM242 1569l139 278h289l147 -278h-190l-101 112l-94 -112h-190z" />
<glyph unicode="&#xcb;" horiz-adv-x="1058" d="M117 0v1464h864v-270h-557v-326h395v-254h-395v-346h598v-268h-905zM233 1595v252h250v-252h-250zM571 1595v252h250v-252h-250z" />
<glyph unicode="&#xcc;" horiz-adv-x="544" d="M43 1847h301l156 -278h-264zM117 0v1464h307v-1464h-307z" />
<glyph unicode="&#xcd;" horiz-adv-x="544" d="M43 1569l156 278h301l-193 -278h-264zM117 0v1464h307v-1464h-307z" />
<glyph unicode="&#xce;" horiz-adv-x="544" d="M-16 1569l139 278h289l147 -278h-190l-101 112l-94 -112h-190zM117 0v1464h307v-1464h-307z" />
<glyph unicode="&#xcf;" horiz-adv-x="544" d="M-20 1595v252h249v-252h-249zM117 0v1464h307v-1464h-307zM317 1595v252h250v-252h-250z" />
<glyph unicode="&#xd0;" horiz-adv-x="1232" d="M35 612v262h80v590h483q132 0 233 -41.5t174 -128.5t110.5 -229t37.5 -336t-37.5 -334.5t-110.5 -227t-173.5 -127t-233.5 -40.5h-483v612h-80zM422 266h176q123 0 184.5 113t61.5 350q0 465 -246 465h-176v-320h166v-262h-166v-346z" />
<glyph unicode="&#xd1;" horiz-adv-x="1236" d="M115 0v1464h293l415 -899v899h295v-1464h-291l-417 889v-889h-295zM324 1702q15 47 69 93t123 46q47 0 122 -31.5t103 -31.5q27 0 52 20t36 47l80 -106q-14 -46 -69.5 -91.5t-124.5 -45.5q-53 0 -129.5 32.5t-98.5 32.5q-25 0 -49 -20.5t-35 -47.5z" />
<glyph unicode="&#xd2;" horiz-adv-x="1273" d="M88 729q0 382 142.5 567t406.5 185t405.5 -184.5t141.5 -563.5q0 -384 -143 -568.5t-406 -184.5t-405 185t-142 564zM295 1847h301l156 -278h-265zM395 729q0 -241 64 -359t178 -118q113 0 176.5 118t63.5 359t-63.5 360t-176.5 119t-177.5 -118.5t-64.5 -360.5z" />
<glyph unicode="&#xd3;" horiz-adv-x="1273" d="M88 729q0 382 142.5 567t406.5 185t405.5 -184.5t141.5 -563.5q0 -384 -143 -568.5t-406 -184.5t-405 185t-142 564zM395 729q0 -241 64 -359t178 -118q113 0 176.5 118t63.5 359t-63.5 360t-176.5 119t-177.5 -118.5t-64.5 -360.5zM483 1569l156 278h301l-192 -278h-265 z" />
<glyph unicode="&#xd4;" horiz-adv-x="1273" d="M88 729q0 382 142.5 567t406.5 185t405.5 -184.5t141.5 -563.5q0 -384 -143 -568.5t-406 -184.5t-405 185t-142 564zM346 1569l139 278h289l148 -278h-191l-100 112l-94 -112h-191zM395 729q0 -241 64 -359t178 -118q113 0 176.5 118t63.5 359t-63.5 360t-176.5 119 t-177.5 -118.5t-64.5 -360.5z" />
<glyph unicode="&#xd5;" horiz-adv-x="1273" d="M88 729q0 382 142.5 567t406.5 185t405.5 -184.5t141.5 -563.5q0 -384 -143 -568.5t-406 -184.5t-405 185t-142 564zM340 1702q15 47 69 93t123 46q47 0 122.5 -31.5t103.5 -31.5q27 0 52 20t36 47l80 -106q-14 -46 -69.5 -91.5t-125.5 -45.5q-53 0 -129 32.5t-98 32.5 q-25 0 -49 -20.5t-35 -47.5zM395 729q0 -241 64 -359t178 -118q113 0 176.5 118t63.5 359t-63.5 360t-176.5 119t-177.5 -118.5t-64.5 -360.5z" />
<glyph unicode="&#xd6;" horiz-adv-x="1273" d="M88 729q0 382 142.5 567t406.5 185t405.5 -184.5t141.5 -563.5q0 -384 -143 -568.5t-406 -184.5t-405 185t-142 564zM342 1571v252h250v-252h-250zM395 729q0 -241 64 -359t178 -118q113 0 176.5 118t63.5 359t-63.5 360t-176.5 119t-177.5 -118.5t-64.5 -360.5z M680 1571v252h250v-252h-250z" />
<glyph unicode="&#xd7;" horiz-adv-x="1218" d="M201 408l235 235l-233 236l170 170l235 -234l236 236l170 -172l-234 -236l236 -235l-172 -172l-236 235l-235 -235z" />
<glyph unicode="&#xd8;" horiz-adv-x="1273" d="M88 729q0 382 142.5 567t406.5 185t405.5 -184.5t141.5 -563.5q0 -384 -143 -568.5t-406 -184.5t-405 185t-142 564zM395 729q0 -117 15 -205l364 623q-55 61 -137 61q-113 0 -177.5 -118.5t-64.5 -360.5zM489 322q58 -70 148 -70q113 0 176.5 118t63.5 359 q0 124 -19 221z" />
<glyph unicode="&#xd9;" horiz-adv-x="1193" d="M111 455v1009h309v-1015q0 -93 51 -144t125 -51t125 51t51 141v1018h309v-1009q0 -211 -139 -343t-346 -132q-205 0 -345 132t-140 343zM309 1847h301l156 -278h-264z" />
<glyph unicode="&#xda;" horiz-adv-x="1193" d="M111 455v1009h309v-1015q0 -93 51 -144t125 -51t125 51t51 141v1018h309v-1009q0 -211 -139 -343t-346 -132q-205 0 -345 132t-140 343zM399 1569l156 278h301l-192 -278h-265z" />
<glyph unicode="&#xdb;" horiz-adv-x="1193" d="M111 455v1009h309v-1015q0 -93 51 -144t125 -51t125 51t51 141v1018h309v-1009q0 -211 -139 -343t-346 -132q-205 0 -345 132t-140 343zM299 1569l139 278h289l147 -278h-190l-100 112l-95 -112h-190z" />
<glyph unicode="&#xdc;" horiz-adv-x="1193" d="M111 455v1009h309v-1015q0 -93 51 -144t125 -51t125 51t51 141v1018h309v-1009q0 -211 -139 -343t-346 -132q-205 0 -345 132t-140 343zM291 1595v252h250v-252h-250zM629 1595v252h250v-252h-250z" />
<glyph unicode="&#xdd;" horiz-adv-x="1193" d="M16 1464h318l260 -565l262 565h320q-349 -730 -426 -893v-571h-310v571zM367 1569l155 278h301l-192 -278h-264z" />
<glyph unicode="&#xde;" horiz-adv-x="1148" d="M117 0v1464h307v-219h182q132 0 244.5 -62.5t179 -172t66.5 -240.5t-66 -241.5t-179 -174t-245 -63.5h-182v-291h-307zM424 559h160q85 0 142.5 61t57.5 150q0 88 -57.5 147.5t-142.5 59.5h-160v-418z" />
<glyph unicode="&#xdf;" d="M102 0v1036q0 210 128.5 327.5t338.5 117.5t328.5 -114.5t118.5 -289.5q0 -92 -36 -172t-110 -131q183 -117 183 -330q0 -194 -126.5 -319t-322.5 -125h-88v266h66q77 0 127.5 53t50.5 144q0 89 -51 132.5t-144 43.5h-51v242h61q73 0 117.5 45.5t44.5 115.5 q0 65 -41.5 108.5t-126.5 43.5q-92 0 -132 -56.5t-40 -168.5v-969h-295z" />
<glyph unicode="&#xe0;" horiz-adv-x="1024" d="M39 336q0 91 30 162t80 112.5t109 62.5t123 21q160 0 262 -108v90q0 94 -42 139t-142 45q-122 0 -248 -61l-135 176q179 125 424 125q432 0 432 -410v-690h-289v104q-36 -57 -110 -90.5t-156 -33.5q-61 0 -119 20.5t-108 61t-80.5 111.5t-30.5 163zM231 1464h301 l156 -278h-264zM324 338q0 -52 40 -89.5t103 -37.5q48 0 98.5 21.5t77.5 48.5v120q-28 27 -78.5 45.5t-95.5 18.5q-65 0 -105 -36.5t-40 -90.5z" />
<glyph unicode="&#xe1;" horiz-adv-x="1024" d="M39 336q0 91 30 162t80 112.5t109 62.5t123 21q160 0 262 -108v90q0 94 -42 139t-142 45q-122 0 -248 -61l-135 176q179 125 424 125q432 0 432 -410v-690h-289v104q-36 -57 -110 -90.5t-156 -33.5q-61 0 -119 20.5t-108 61t-80.5 111.5t-30.5 163zM295 1186l156 278h301 l-193 -278h-264zM324 338q0 -52 40 -89.5t103 -37.5q48 0 98.5 21.5t77.5 48.5v120q-28 27 -78.5 45.5t-95.5 18.5q-65 0 -105 -36.5t-40 -90.5z" />
<glyph unicode="&#xe2;" horiz-adv-x="1024" d="M39 336q0 91 30 162t80 112.5t109 62.5t123 21q160 0 262 -108v90q0 94 -42 139t-142 45q-122 0 -248 -61l-135 176q179 125 424 125q432 0 432 -410v-690h-289v104q-36 -57 -110 -90.5t-156 -33.5q-61 0 -119 20.5t-108 61t-80.5 111.5t-30.5 163zM213 1186l139 278h289 l147 -278h-190l-100 112l-95 -112h-190zM324 338q0 -52 40 -89.5t103 -37.5q48 0 98.5 21.5t77.5 48.5v120q-28 27 -78.5 45.5t-95.5 18.5q-65 0 -105 -36.5t-40 -90.5z" />
<glyph unicode="&#xe3;" horiz-adv-x="1024" d="M39 336q0 91 30 162t80 112.5t109 62.5t123 21q160 0 262 -108v90q0 94 -42 139t-142 45q-122 0 -248 -61l-135 176q179 125 424 125q432 0 432 -410v-690h-289v104q-36 -57 -110 -90.5t-156 -33.5q-61 0 -119 20.5t-108 61t-80.5 111.5t-30.5 163zM211 1319q15 47 69 93 t123 46q47 0 122.5 -31.5t103.5 -31.5q27 0 52 20t36 47l80 -106q-14 -46 -69.5 -91.5t-125.5 -45.5q-53 0 -129 32.5t-98 32.5q-25 0 -49 -20t-35 -47zM324 338q0 -52 40 -89.5t103 -37.5q48 0 98.5 21.5t77.5 48.5v120q-28 27 -78.5 45.5t-95.5 18.5q-65 0 -105 -36.5 t-40 -90.5z" />
<glyph unicode="&#xe4;" horiz-adv-x="1024" d="M39 336q0 91 30 162t80 112.5t109 62.5t123 21q160 0 262 -108v90q0 94 -42 139t-142 45q-122 0 -248 -61l-135 176q179 125 424 125q432 0 432 -410v-690h-289v104q-36 -57 -110 -90.5t-156 -33.5q-61 0 -119 20.5t-108 61t-80.5 111.5t-30.5 163zM211 1212v252h250 v-252h-250zM324 338q0 -52 40 -89.5t103 -37.5q48 0 98.5 21.5t77.5 48.5v120q-28 27 -78.5 45.5t-95.5 18.5q-65 0 -105 -36.5t-40 -90.5zM549 1212v252h250v-252h-250z" />
<glyph unicode="&#xe5;" horiz-adv-x="1024" d="M39 336q0 91 30 162t80 112.5t109 62.5t123 21q160 0 262 -108v90q0 94 -42 139t-142 45q-122 0 -248 -61l-135 176q179 125 424 125q432 0 432 -410v-690h-289v104q-36 -57 -110 -90.5t-156 -33.5q-61 0 -119 20.5t-108 61t-80.5 111.5t-30.5 163zM285 1376 q0 88 63 151.5t152 63.5t152 -63.5t63 -151.5q0 -90 -62.5 -152.5t-152.5 -62.5t-152.5 62.5t-62.5 152.5zM324 338q0 -52 40 -89.5t103 -37.5q48 0 98.5 21.5t77.5 48.5v120q-28 27 -78.5 45.5t-95.5 18.5q-65 0 -105 -36.5t-40 -90.5zM410 1378q0 -38 27 -65t65 -27 q37 0 62.5 27t25.5 65q0 37 -25.5 62.5t-62.5 25.5q-38 0 -65 -25.5t-27 -62.5z" />
<glyph unicode="&#xe6;" horiz-adv-x="1583" d="M37 330q0 90 30.5 160t81.5 111t110.5 62t123.5 21q78 0 149 -30.5t117 -86.5v107q0 93 -43.5 139.5t-144.5 46.5q-124 0 -250 -61l-135 176q71 51 180.5 88t232.5 37q222 0 320 -107q104 107 274 107q219 0 323.5 -152t104.5 -487h-591q3 -123 51.5 -178.5t140.5 -55.5 q100 0 166 86l238 -86q-135 -247 -422 -247q-270 0 -371 190q-110 -190 -342 -190q-49 0 -96 11.5t-92.5 38t-79.5 65.5t-55 99.5t-21 135.5zM322 330q0 -51 42.5 -85t106.5 -34q65 0 118.5 28.5t53.5 90.5q0 44 -29.5 73.5t-66.5 40.5t-76 11q-64 0 -106.5 -35.5 t-42.5 -89.5zM920 629h305q-10 215 -152 215q-69 0 -108 -49t-45 -166z" />
<glyph unicode="&#xe7;" horiz-adv-x="954" d="M66 539q0 280 120.5 420.5t331.5 140.5q304 0 406 -299l-262 -56q-58 99 -148 99q-77 0 -116.5 -69t-39.5 -232q0 -164 39.5 -235.5t116.5 -71.5q93 0 148 98l264 -55q-113 -299 -414 -299q-211 0 -328.5 141.5t-117.5 417.5zM315 -375l41 109q56 -21 121 -21q78 0 78 54 q0 55 -86 55q-91 0 -121 -15l23 82q60 60 159 60q82 0 135.5 -46t53.5 -126q0 -82 -61 -133.5t-181 -51.5q-103 0 -162 33z" />
<glyph unicode="&#xe8;" horiz-adv-x="1032" d="M70 535q0 148 34.5 258.5t97 176.5t144.5 98t184 32q220 0 325.5 -152.5t105.5 -486.5h-592q6 -234 186 -234q106 0 172 86l238 -86q-135 -247 -428 -247q-221 0 -344 135t-123 420zM223 1464h301l156 -278h-264zM369 629h305q-5 103 -40 159t-114 56q-143 0 -151 -215z " />
<glyph unicode="&#xe9;" horiz-adv-x="1032" d="M70 535q0 148 34.5 258.5t97 176.5t144.5 98t184 32q220 0 325.5 -152.5t105.5 -486.5h-592q6 -234 186 -234q106 0 172 86l238 -86q-135 -247 -428 -247q-221 0 -344 135t-123 420zM369 629h305q-5 103 -40 159t-114 56q-143 0 -151 -215zM375 1186l155 278h301 l-192 -278h-264z" />
<glyph unicode="&#xea;" horiz-adv-x="1032" d="M70 535q0 148 34.5 258.5t97 176.5t144.5 98t184 32q220 0 325.5 -152.5t105.5 -486.5h-592q6 -234 186 -234q106 0 172 86l238 -86q-135 -247 -428 -247q-221 0 -344 135t-123 420zM227 1186l140 278h288l148 -278h-191l-100 112l-94 -112h-191zM369 629h305 q-5 103 -40 159t-114 56q-143 0 -151 -215z" />
<glyph unicode="&#xeb;" horiz-adv-x="1032" d="M70 535q0 148 34.5 258.5t97 176.5t144.5 98t184 32q220 0 325.5 -152.5t105.5 -486.5h-592q6 -234 186 -234q106 0 172 86l238 -86q-135 -247 -428 -247q-221 0 -344 135t-123 420zM221 1212v252h250v-252h-250zM369 629h305q-5 103 -40 159t-114 56q-143 0 -151 -215z M559 1212v252h250v-252h-250z" />
<glyph unicode="&#xec;" horiz-adv-x="489" d="M18 1464h301l156 -278h-264zM96 0v1081h295v-1081h-295z" />
<glyph unicode="&#xed;" horiz-adv-x="489" d="M18 1186l156 278h301l-192 -278h-265zM96 0v1081h295v-1081h-295z" />
<glyph unicode="&#xee;" horiz-adv-x="489" d="M-41 1186l139 278h289l148 -278h-191l-100 112l-94 -112h-191zM96 0v1081h295v-1081h-295z" />
<glyph unicode="&#xef;" horiz-adv-x="489" d="M-49 1212v252h250v-252h-250zM96 0v1081h295v-1081h-295zM289 1212v252h250v-252h-250z" />
<glyph unicode="&#xf0;" horiz-adv-x="1064" d="M61 547q0 250 115.5 398.5t327.5 148.5q44 0 88 -9q-9 16 -28.5 43t-26.5 39l-35 52l-131 -72l-60 110l113 60q-28 35 -131 147h291l41 -39l120 66l58 -113l-96 -53q151 -173 221.5 -361t70.5 -411q0 -276 -121 -423.5t-346 -147.5q-227 0 -349 146.5t-122 418.5z M352 545q0 -316 180 -316q85 0 131 78.5t46 237.5q0 151 -46 227t-131 76q-86 0 -133 -76t-47 -227z" />
<glyph unicode="&#xf1;" horiz-adv-x="1060" d="M92 0v1081h295v-106q38 51 106.5 88t159.5 37q153 0 234.5 -109t81.5 -299v-692h-297v690q0 164 -119 164q-48 0 -93 -22t-73 -50v-782h-295zM236 1319q15 47 69 93t123 46q47 0 122 -31.5t103 -31.5q27 0 52 20t36 47l80 -106q-14 -46 -69.5 -91.5t-124.5 -45.5 q-53 0 -129.5 32.5t-98.5 32.5q-25 0 -49 -20t-35 -47z" />
<glyph unicode="&#xf2;" horiz-adv-x="1064" d="M63 543q0 266 122 410.5t347 144.5t347 -144.5t122 -410.5q0 -268 -122 -414.5t-347 -146.5t-347 146.5t-122 414.5zM215 1464h301l156 -278h-264zM354 543q0 -312 178 -312q177 0 177 312q0 305 -177 305q-178 0 -178 -305z" />
<glyph unicode="&#xf3;" horiz-adv-x="1064" d="M63 543q0 266 122 410.5t347 144.5t347 -144.5t122 -410.5q0 -268 -122 -414.5t-347 -146.5t-347 146.5t-122 414.5zM354 543q0 -312 178 -312q177 0 177 312q0 305 -177 305q-178 0 -178 -305zM367 1186l155 278h301l-192 -278h-264z" />
<glyph unicode="&#xf4;" horiz-adv-x="1064" d="M63 543q0 266 122 410.5t347 144.5t347 -144.5t122 -410.5q0 -268 -122 -414.5t-347 -146.5t-347 146.5t-122 414.5zM244 1186l139 278h289l147 -278h-190l-101 112l-94 -112h-190zM354 543q0 -312 178 -312q177 0 177 312q0 305 -177 305q-178 0 -178 -305z" />
<glyph unicode="&#xf5;" horiz-adv-x="1064" d="M63 543q0 266 122 410.5t347 144.5t347 -144.5t122 -410.5q0 -268 -122 -414.5t-347 -146.5t-347 146.5t-122 414.5zM238 1319q15 47 69 93t123 46q47 0 122 -31.5t103 -31.5q27 0 52 20t36 47l80 -106q-14 -46 -69.5 -91.5t-124.5 -45.5q-53 0 -129.5 32.5t-98.5 32.5 q-25 0 -49 -20t-35 -47zM354 543q0 -312 178 -312q177 0 177 312q0 305 -177 305q-178 0 -178 -305z" />
<glyph unicode="&#xf6;" horiz-adv-x="1064" d="M63 543q0 266 122 410.5t347 144.5t347 -144.5t122 -410.5q0 -268 -122 -414.5t-347 -146.5t-347 146.5t-122 414.5zM238 1212v252h249v-252h-249zM354 543q0 -312 178 -312q177 0 177 312q0 305 -177 305q-178 0 -178 -305zM575 1212v252h250v-252h-250z" />
<glyph unicode="&#xf7;" d="M106 522v244h910v-244h-910zM399 45v322h324v-322h-324zM399 915v322h324v-322h-324z" />
<glyph unicode="&#xf8;" horiz-adv-x="1064" d="M63 543q0 266 122 410.5t347 144.5t347 -144.5t122 -410.5q0 -268 -122 -414.5t-347 -146.5t-347 146.5t-122 414.5zM354 543q0 -63 11 -131l270 397q-39 39 -103 39q-178 0 -178 -305zM428 270q42 -39 104 -39q177 0 177 312q0 55 -11 123z" />
<glyph unicode="&#xf9;" horiz-adv-x="1056" d="M92 389v692h295v-690q0 -87 32 -125.5t95 -38.5q40 0 84 18t70 40v796h295v-1081h-295v104q-37 -50 -107 -86t-139 -36q-167 0 -248.5 107t-81.5 300zM246 1464h301l155 -278h-264z" />
<glyph unicode="&#xfa;" horiz-adv-x="1056" d="M92 389v692h295v-690q0 -87 32 -125.5t95 -38.5q40 0 84 18t70 40v796h295v-1081h-295v104q-37 -50 -107 -86t-139 -36q-167 0 -248.5 107t-81.5 300zM338 1186l156 278h301l-193 -278h-264z" />
<glyph unicode="&#xfb;" horiz-adv-x="1056" d="M92 389v692h295v-690q0 -87 32 -125.5t95 -38.5q40 0 84 18t70 40v796h295v-1081h-295v104q-37 -50 -107 -86t-139 -36q-167 0 -248.5 107t-81.5 300zM240 1186l139 278h289l147 -278h-190l-101 112l-94 -112h-190z" />
<glyph unicode="&#xfc;" horiz-adv-x="1056" d="M92 389v692h295v-690q0 -87 32 -125.5t95 -38.5q40 0 84 18t70 40v796h295v-1081h-295v104q-37 -50 -107 -86t-139 -36q-167 0 -248.5 107t-81.5 300zM233 1212v252h250v-252h-250zM571 1212v252h250v-252h-250z" />
<glyph unicode="&#xfd;" horiz-adv-x="999" d="M23 1081h299l174 -675l180 675h299l-459 -1466h-293l127 408zM270 1186l156 278h301l-192 -278h-265z" />
<glyph unicode="&#xfe;" horiz-adv-x="1075" d="M92 -385v1849h295v-491q111 127 270 127q74 0 135 -30t110 -92.5t76.5 -170.5t27.5 -252q0 -124 -20.5 -223t-55.5 -164t-83 -108t-100 -61.5t-110 -18.5q-87 0 -152 36.5t-98 85.5v-487h-295zM387 301q82 -72 170 -72q72 0 114 69.5t42 242.5q0 89 -12 152t-34 96.5 t-49 48t-61 14.5q-48 0 -95 -23t-75 -51v-477z" />
<glyph unicode="&#xff;" horiz-adv-x="999" d="M23 1081h299l174 -675l180 675h299l-459 -1466h-293l127 408zM205 1212v252h250v-252h-250zM543 1212v252h250v-252h-250z" />
<glyph unicode="&#x152;" horiz-adv-x="1744" d="M88 729q0 170 25.5 297t72 210t118.5 134.5t157 72.5t196 21h1008v-270h-557v-328h395v-252h-395v-348h598v-266h-1049q-111 0 -196 20.5t-157 71t-118.5 133t-72 209t-25.5 295.5zM395 729q0 -113 12.5 -195.5t33.5 -134t55 -81.5t72 -41t89 -11h144v928h-144 q-51 0 -88.5 -10.5t-71.5 -40t-55.5 -80.5t-34 -134.5t-12.5 -199.5z" />
<glyph unicode="&#x153;" horiz-adv-x="1652" d="M61 547q0 264 117 407.5t342 143.5q207 0 322 -140q109 142 309 142q220 0 325 -152t105 -487h-594q3 -122 52 -178t141 -56q102 0 168 86l237 -86q-135 -247 -424 -247q-219 0 -325 135q-111 -133 -316 -133q-226 0 -342.5 145.5t-116.5 419.5zM352 545q0 -316 180 -316 q85 0 131 78.5t46 237.5q0 151 -46 227t-131 76q-86 0 -133 -76t-47 -227zM989 629h305q-10 215 -153 215q-144 0 -152 -215z" />
<glyph unicode="&#x178;" horiz-adv-x="1193" d="M16 1464h318l260 -565l262 565h320q-349 -730 -426 -893v-571h-310v571zM303 1571v252h250v-252h-250zM641 1571v252h250v-252h-250z" />
<glyph unicode="&#x2c6;" horiz-adv-x="497" d="M-39 1186l139 278h289l148 -278h-191l-100 112l-94 -112h-191z" />
<glyph unicode="&#x2dc;" horiz-adv-x="638" d="M27 1319q15 47 69 93t123 46q47 0 122 -31.5t103 -31.5q27 0 52 20t36 47l80 -106q-14 -46 -69.5 -91.5t-124.5 -45.5q-53 0 -129.5 32.5t-98.5 32.5q-25 0 -49 -20t-35 -47z" />
<glyph unicode="&#x2000;" horiz-adv-x="923" />
<glyph unicode="&#x2001;" horiz-adv-x="1847" />
<glyph unicode="&#x2002;" horiz-adv-x="923" />
<glyph unicode="&#x2003;" horiz-adv-x="1847" />
<glyph unicode="&#x2004;" horiz-adv-x="615" />
<glyph unicode="&#x2005;" horiz-adv-x="461" />
<glyph unicode="&#x2006;" horiz-adv-x="307" />
<glyph unicode="&#x2007;" horiz-adv-x="307" />
<glyph unicode="&#x2008;" horiz-adv-x="230" />
<glyph unicode="&#x2009;" horiz-adv-x="369" />
<glyph unicode="&#x200a;" horiz-adv-x="102" />
<glyph unicode="&#x2010;" horiz-adv-x="669" d="M45 498v243h578v-243h-578z" />
<glyph unicode="&#x2011;" horiz-adv-x="669" d="M45 498v243h578v-243h-578z" />
<glyph unicode="&#x2012;" horiz-adv-x="669" d="M45 498v243h578v-243h-578z" />
<glyph unicode="&#x2013;" horiz-adv-x="1046" d="M0 522v244h1047v-244h-1047z" />
<glyph unicode="&#x2014;" horiz-adv-x="1949" d="M0 522v244h1950v-244h-1950z" />
<glyph unicode="&#x2018;" horiz-adv-x="462" d="M74 905v279l157 280h156l-102 -274h106v-285h-317z" />
<glyph unicode="&#x2019;" horiz-adv-x="462" d="M72 1180v284h317v-278l-158 -281h-155l102 275h-106z" />
<glyph unicode="&#x201a;" horiz-adv-x="462" d="M72 0v285h317v-279l-158 -280h-155l102 274h-106z" />
<glyph unicode="&#x201c;" horiz-adv-x="907" d="M72 905v279l157 280h156l-102 -274h106v-285h-317zM504 905v279l158 280h155l-102 -274h106v-285h-317z" />
<glyph unicode="&#x201d;" horiz-adv-x="907" d="M74 1180v284h317v-278l-158 -281h-155l102 275h-106zM508 1180v284h317v-278l-157 -281h-156l102 275h-106z" />
<glyph unicode="&#x201e;" horiz-adv-x="907" d="M72 0v285h317v-279l-158 -280h-155l102 274h-106zM506 0v285h317v-279l-157 -280h-156l102 274h-106z" />
<glyph unicode="&#x2022;" horiz-adv-x="1163" d="M180 600q0 166 118 283.5t284 117.5t283.5 -117.5t117.5 -283.5t-117.5 -283.5t-283.5 -117.5t-284 117.5t-118 283.5z" />
<glyph unicode="&#x2026;" horiz-adv-x="1417" d="M76 0v322h321v-322h-321zM547 0v322h323v-322h-323zM1020 0v322h321v-322h-321z" />
<glyph unicode="&#x202f;" horiz-adv-x="369" />
<glyph unicode="&#x2039;" horiz-adv-x="536" d="M27 580l211 415h278l-203 -409l203 -418h-276z" />
<glyph unicode="&#x203a;" horiz-adv-x="536" d="M20 168l203 418l-203 409h279l211 -415l-213 -412h-277z" />
<glyph unicode="&#x205f;" horiz-adv-x="461" />
<glyph unicode="&#x20ac;" d="M104 469v205h121v114h-121v207h121q6 230 135.5 358t346.5 128q203 0 342 -133l-101 -197q-128 74 -241 74q-87 0 -132 -53.5t-49 -176.5h400q-34 -130 -52 -207h-350v-114h316l-52 -205h-262q1 -127 42.5 -181.5t125.5 -54.5q118 0 201 80l195 -149q-70 -83 -175 -133.5 t-233 -50.5q-209 0 -331 124.5t-126 364.5h-121z" />
<glyph unicode="&#x2122;" horiz-adv-x="1304" d="M33 1317v147h487v-147h-155v-512h-185v512h-147zM582 805v659h196l127 -293l123 293h197v-659h-172v401l-103 -258h-88l-110 248v-391h-170z" />
<glyph unicode="&#xe000;" horiz-adv-x="1085" d="M0 0v1085h1085v-1085h-1085z" />
<glyph unicode="&#xfb01;" horiz-adv-x="1083" d="M-2 846v235h145v56q0 186 95.5 265t275.5 79q67 0 141.5 -2t162.5 -6t126 -5v-239q-258 12 -311 12q-115 0 -158 -21t-43 -92v-47h555v-1081h-295v846h-260v-846h-289v846h-145z" />
<glyph unicode="&#xfb02;" horiz-adv-x="1085" d="M-2 846v235h145v45q0 89 20.5 152.5t56 102.5t93.5 61.5t122.5 30.5t154.5 8q35 0 150.5 -8.5t146.5 -8.5h100v-1464h-295v1239q-129 6 -133 6q-66 0 -96.5 -24.5t-30.5 -87.5v-64h168v-223h-168v-846h-289v846h-145z" />
<glyph unicode="&#xfb03;" horiz-adv-x="1630" d="M-2 846v235h145v56q0 344 355 344q8 0 131 -6v-240q-37 6 -86 6q-111 0 -111 -113v-47h258v56q0 186 95.5 265t275.5 79q67 0 141.5 -2t162.5 -6t126 -5v-239q-270 12 -324 12q-103 0 -144.5 -24t-41.5 -89v-47h553v-1081h-295v846h-258v-846h-291v846h-258v-846h-289 v846h-145z" />
<glyph unicode="&#xfb04;" horiz-adv-x="1632" d="M-2 846v235h145v56q0 344 355 344q8 0 131 -6v-240q-37 6 -86 6q-111 0 -111 -113v-47h258v45q0 67 12.5 119.5t33.5 89.5t55.5 63.5t71.5 42.5t89 25t101 12t114 3q36 0 136 -8.5t131 -8.5h100v-1464h-295v1239q-129 6 -133 6q-66 0 -95.5 -24t-29.5 -88v-64h166v-223 h-166v-846h-291v846h-258v-846h-289v846h-145z" />
</font>
</defs>
</svg>
